<?xml version="1.0" encoding="UTF-8"?>
<svg width="19px" height="15px" viewBox="0 0 19 15" version="1.1" xmlns="http://www.w3.org/2000/svg" xmlns:xlink="http://www.w3.org/1999/xlink">
    <!-- Generator: Sketch 46.1 (44463) - http://www.bohemiancoding.com/sketch -->
    <title>Shape</title>
    <desc>Created with Sketch.</desc>
    <defs></defs>
    <g id="Page-1" stroke="none" stroke-width="1" fill="none" fill-rule="evenodd">
        <g id="Sailfish-sign-up---photo-1" transform="translate(-30.000000, -554.000000)" fill-rule="nonzero" fill="#12807D">
            <g id="Group-8" transform="translate(30.000000, 502.000000)">
                <path d="M19,54.9292929 C19,54.6136365 18.8774193,54.2979794 18.6567739,54.0707071 L16.9896774,52.3535349 C16.769032,52.1262627 16.4625806,52 16.1561292,52 C15.8496771,52 15.5432257,52.1262627 15.3225803,52.3535349 L7.28129002,60.6489897 L3.677419,56.9242421 C3.45677431,56.6969698 3.15032291,56.5707071 2.84387078,56.5707071 C2.53741938,56.5707071 2.23096798,56.6969698 2.01032256,56.9242421 L0.343226125,58.6414143 C0.122580707,58.8686865 0,59.1843436 0,59.5 C0,59.8156564 0.122580707,60.1313127 0.343226125,60.3585857 L4.78064536,64.9292929 L6.4477418,66.6464651 C6.66838722,66.8737373 6.97483862,67 7.28129002,67 C7.58774215,67 7.89419355,66.8737373 8.11483897,66.6464651 L9.78193541,64.9292929 L18.6567739,55.7878786 C18.8774193,55.5606056 19,55.2449492 19,54.9292929 Z" id="Shape"></path>
            </g>
        </g>
    </g>
</svg>